<?xml version="1.0" encoding="UTF-8" standalone="no"?>
<!-- Created with Inkscape (http://www.inkscape.org/) -->

<svg
   xmlns:dc="http://purl.org/dc/elements/1.1/"
   xmlns:cc="http://creativecommons.org/ns#"
   xmlns:rdf="http://www.w3.org/1999/02/22-rdf-syntax-ns#"
   xmlns:svg="http://www.w3.org/2000/svg"
   xmlns="http://www.w3.org/2000/svg"
   xmlns:sodipodi="http://sodipodi.sourceforge.net/DTD/sodipodi-0.dtd"
   xmlns:inkscape="http://www.inkscape.org/namespaces/inkscape"
   width="400"
   height="400"
   id="svg2"
   version="1.1"
   inkscape:version="0.48.4 r9939"
   sodipodi:docname="favicon.svg">
  <defs
     id="defs4" />
  <sodipodi:namedview
     id="base"
     pagecolor="#ffffff"
     bordercolor="#666666"
     borderopacity="1.0"
     inkscape:pageopacity="0.0"
     inkscape:pageshadow="2"
     inkscape:zoom="1"
     inkscape:cx="134.45376"
     inkscape:cy="256.78461"
     inkscape:document-units="px"
     inkscape:current-layer="layer1"
     showgrid="false"
     showguides="true"
     inkscape:guide-bbox="true"
     inkscape:snap-bbox="true"
     inkscape:bbox-paths="true"
     inkscape:snap-page="true"
     inkscape:snap-bbox-midpoints="true"
     inkscape:window-width="1366"
     inkscape:window-height="717"
     inkscape:window-x="0"
     inkscape:window-y="26"
     inkscape:window-maximized="1">
    <sodipodi:guide
       orientation="0,1"
       position="366.7934,400"
       id="guide3003" />
    <sodipodi:guide
       orientation="0,1"
       position="400,0"
       id="guide3005" />
    <sodipodi:guide
       orientation="1,0"
       position="0,189.21882"
       id="guide3007" />
    <sodipodi:guide
       orientation="1,0"
       position="400,217.35905"
       id="guide3009" />
    <sodipodi:guide
       orientation="0,1"
       position="45.606587,99.94635"
       id="guide3011" />
    <sodipodi:guide
       orientation="1,0"
       position="350.2974,428.89599"
       id="guide3013" />
    <sodipodi:guide
       orientation="0,1"
       position="400,339.41126"
       id="guide3017" />
    <sodipodi:guide
       orientation="0,1"
       position="147.49364,50.458351"
       id="guide3019" />
    <sodipodi:guide
       orientation="1,0"
       position="80.539292,152.34541"
       id="guide3021" />
  </sodipodi:namedview>
  <metadata
     id="metadata7">
    <rdf:RDF>
      <cc:Work
         rdf:about="">
        <dc:format>image/svg+xml</dc:format>
        <dc:type
           rdf:resource="http://purl.org/dc/dcmitype/StillImage" />
        <dc:title />
      </cc:Work>
    </rdf:RDF>
  </metadata>
  <g
     inkscape:label="Layer 1"
     inkscape:groupmode="layer"
     id="layer1"
     transform="translate(0,-652.36215)">
    <rect
       style="opacity:1;fill:#ffffff"
       id="rect3554"
       width="400"
       height="400"
       x="0"
       y="0"
       transform="translate(0,652.36215)" />
    <path
       sodipodi:type="arc"
       style="fill:none;stroke:#a7bfcc;stroke-width:14.64822292;stroke-linejoin:miter;stroke-miterlimit:4;stroke-opacity:1;stroke-dasharray:none;stroke-dashoffset:0;marker-start:none"
       id="path3015"
       sodipodi:cx="149.91953"
       sodipodi:cy="150.02682"
       sodipodi:rx="149.91953"
       sodipodi:ry="150.02682"
       d="m 299.83905,150.02682 c 0,82.85753 -67.12126,150.02683 -149.91952,150.02683 C 67.121258,300.05365 0,232.88435 0,150.02682 0,67.169297 67.121258,0 149.91953,0 232.71779,0 299.83905,67.169297 299.83905,150.02682 z"
       transform="matrix(1.2719327,0,0,1.271023,9.3124623,661.67459)" />
    <g
       id="g3293"
       transform="matrix(0.89366777,0,0,0.85549596,163.54281,805.47679)"
       style="fill:#82a6ba;fill-opacity:1">
      <path
         id="path3277"
         d="M 68.848,68.51"
         inkscape:connector-curvature="0"
         style="fill:#82a6ba;fill-opacity:1" />
      <path
         id="path3279"
         d="M 12.687,68.51"
         inkscape:connector-curvature="0"
         style="fill:#82a6ba;fill-opacity:1" />
      <g
         id="g3281"
         transform="matrix(2.3390971,0,0,2.3390971,-54.628465,-66.944977)"
         style="fill:#82a6ba;fill-opacity:1">
        <path
           id="path3283"
           d="M 77.619,14.775 C 76.521,9.247 72.997,7.044 67.688,4.845 62.499,2.668 50.02,0.079 40.794,0 31.551,0.079 19.072,2.668 13.846,4.846 8.575,7.045 5.051,9.248 3.971,14.776 L 0,45.284 v 42.091 h 6.84 v 6.564 c -0.027,8.071 11.745,8.071 11.75,0 V 87.375 H 40.327 40.381 63 v 6.564 c -0.014,8.071 11.759,8.071 11.75,0 v -6.564 h 6.84 V 45.284 L 77.619,14.775 z M 23.996,7.715 h 16.385 17.212 c 3.286,-0.009 3.286,4.949 0,4.965 H 40.327 23.996 c -3.302,-0.016 -3.302,-4.974 0,-4.965 z M 12.687,74.191 C 9.586,74.176 7.056,71.649 7.06,68.509 7.056,65.41 9.586,62.882 12.687,62.882 c 3.136,0 5.665,2.528 5.683,5.627 -0.018,3.14 -2.547,5.668 -5.683,5.682 z M 40.381,48.482 H 10.426 C 7.501,48.51 6.886,46.401 7.173,44.29 l 3.088,-22.177 c 0.425,-2.67 1.336,-4.443 4.854,-4.468 h 25.213 26.149 c 3.498,0.025 4.412,1.797 4.854,4.468 l 3.09,22.177 c 0.266,2.112 -0.348,4.22 -3.256,4.192 H 40.381 z m 28.467,25.709 c -3.1,-0.015 -5.628,-2.542 -5.628,-5.682 0,-3.099 2.528,-5.627 5.628,-5.627 3.137,0 5.667,2.528 5.681,5.627 -0.014,3.14 -2.544,5.668 -5.681,5.682 z"
           inkscape:connector-curvature="0"
           style="fill:#82a6ba;fill-opacity:1" />
        <path
           id="path3285"
           d="m 40.381,-0.007 c 0.135,0 0.277,0.006 0.414,0.007 0.137,-0.001 0.278,-0.007 0.414,-0.007 h -0.828 z"
           inkscape:connector-curvature="0"
           style="fill:#82a6ba;fill-opacity:1" />
      </g>
    </g>
    <path
       sodipodi:type="arc"
       style="opacity:0.65400845;fill:none;stroke:#a7bfcc;stroke-width:20.53876686;stroke-linejoin:miter;stroke-miterlimit:4;stroke-opacity:1;stroke-dasharray:20.53876685, 41.07753372;stroke-dashoffset:205.38766858;marker-start:none"
       id="path4248"
       sodipodi:cx="200"
       sodipodi:cy="200"
       sodipodi:rx="200"
       sodipodi:ry="200"
       d="M 400,200 C 400,310.45695 310.45695,400 200,400 89.54305,400 0,310.45695 0,200 0,89.54305 89.54305,0 200,0 310.45695,0 400,89.54305 400,200 z"
       transform="matrix(0.78398082,0,0,0.78398082,43.203827,695.57417)" />
    <rect
       style="opacity:0.25000000000000000;fill:#ff0000;stroke:none;stroke-width:16.10199928000000114;stroke-linejoin:miter;stroke-miterlimit:4;stroke-opacity:1;stroke-dasharray:16.10199928000000114, 32.20399857000000310;stroke-dashoffset:161.01999283000000673;fill-opacity:0"
       id="rect4430"
       width="18.436705"
       height="187.27811"
       x="189.21881"
       y="37.088013"
       transform="translate(0,652.36215)" />
    <path
       sodipodi:type="star"
       style="fill:#db5051;fill-opacity:1;stroke:none"
       id="path4434"
       sodipodi:sides="3"
       sodipodi:cx="-150.40469"
       sodipodi:cy="254.44707"
       sodipodi:r1="123.99273"
       sodipodi:r2="61.996365"
       sodipodi:arg1="0.87405405"
       sodipodi:arg2="1.9212516"
       inkscape:flatsided="false"
       inkscape:rounded="0"
       inkscape:randomized="0"
       d="m -70.835753,349.54166 -100.853867,-36.86658 -100.85387,-36.86658 82.35433,-68.90873 82.35433,-68.90872 18.499536,105.7753 z"
       transform="matrix(-0.00235477,-0.32335846,-0.32335846,0.00235477,174.15284,718.06606)"
       inkscape:transform-center-x="17.658746"
       inkscape:transform-center-y="-13.864464" />
  </g>
</svg>
